<mxfile host="app.diagrams.net" agent="Mozilla/5.0 (Windows NT 10.0; Win64; x64) AppleWebKit/537.36 (KHTML, like Gecko) Chrome/129.0.0.0 Safari/537.36" version="24.7.17" pages="3">
  <diagram name="barroEl_ME" id="YaqWV1GsDTL3QctSy_Qt">
    <mxGraphModel dx="1666" dy="771" grid="1" gridSize="10" guides="1" tooltips="1" connect="1" arrows="1" fold="1" page="1" pageScale="1" pageWidth="850" pageHeight="1100" math="0" shadow="0">
      <root>
        <mxCell id="0" />
        <mxCell id="1" parent="0" />
        <mxCell id="Q8qbM69tqfHwzTROcHRx-1" value="&lt;b&gt;START&lt;/b&gt;" style="ellipse;whiteSpace=wrap;html=1;" vertex="1" parent="1">
          <mxGeometry x="400" y="20" width="80" height="40" as="geometry" />
        </mxCell>
        <mxCell id="zBV2q0Zfney9ZTTshr2U-1" value="&lt;b&gt;END&lt;/b&gt;" style="ellipse;whiteSpace=wrap;html=1;" vertex="1" parent="1">
          <mxGeometry x="400" y="600" width="80" height="40" as="geometry" />
        </mxCell>
        <mxCell id="-_H8dHfTyaZjRFjOkcmk-1" value="&lt;h1 style=&quot;margin-top: 0px;&quot;&gt;START&lt;/h1&gt;&lt;p&gt;Lorem ipsum dolor sit amet, consectetur adipisicing elit, sed do eiusmod tempor incididunt ut labore et dolore magna aliqua.&lt;/p&gt;&lt;p&gt;&lt;br&gt;&lt;/p&gt;&lt;h1 style=&quot;margin-top: 0px;&quot;&gt;STOP&lt;/h1&gt;" style="text;html=1;whiteSpace=wrap;overflow=hidden;rounded=0;" vertex="1" parent="1">
          <mxGeometry x="-310" y="110" width="550" height="280" as="geometry" />
        </mxCell>
      </root>
    </mxGraphModel>
  </diagram>
  <diagram name="barroEl_ME_algo5" id="jKnM8zcq6sa2OfzGTcd6">
    <mxGraphModel dx="816" dy="771" grid="1" gridSize="10" guides="1" tooltips="1" connect="1" arrows="1" fold="1" page="1" pageScale="1" pageWidth="850" pageHeight="1100" math="0" shadow="0">
      <root>
        <mxCell id="R6nEht67e2j02Px_Xtbr-0" />
        <mxCell id="R6nEht67e2j02Px_Xtbr-1" parent="R6nEht67e2j02Px_Xtbr-0" />
        <mxCell id="jRo6_jph3yI7QgjQ3p2D-8" style="edgeStyle=orthogonalEdgeStyle;rounded=0;orthogonalLoop=1;jettySize=auto;html=1;exitX=0.5;exitY=1;exitDx=0;exitDy=0;entryX=0.5;entryY=0;entryDx=0;entryDy=0;" edge="1" parent="R6nEht67e2j02Px_Xtbr-1" source="R6nEht67e2j02Px_Xtbr-2" target="jRo6_jph3yI7QgjQ3p2D-0">
          <mxGeometry relative="1" as="geometry" />
        </mxCell>
        <mxCell id="R6nEht67e2j02Px_Xtbr-2" value="&lt;b&gt;START&lt;/b&gt;" style="ellipse;whiteSpace=wrap;html=1;" vertex="1" parent="R6nEht67e2j02Px_Xtbr-1">
          <mxGeometry x="385" y="20" width="80" height="40" as="geometry" />
        </mxCell>
        <mxCell id="taRT4K7_qySOUpWSKt-5-0" value="&lt;b&gt;END&lt;/b&gt;" style="ellipse;whiteSpace=wrap;html=1;" vertex="1" parent="R6nEht67e2j02Px_Xtbr-1">
          <mxGeometry x="385" y="970" width="80" height="40" as="geometry" />
        </mxCell>
        <mxCell id="jRo6_jph3yI7QgjQ3p2D-9" style="edgeStyle=orthogonalEdgeStyle;rounded=0;orthogonalLoop=1;jettySize=auto;html=1;exitX=0.5;exitY=1;exitDx=0;exitDy=0;entryX=0.5;entryY=0;entryDx=0;entryDy=0;" edge="1" parent="R6nEht67e2j02Px_Xtbr-1" source="jRo6_jph3yI7QgjQ3p2D-0" target="jRo6_jph3yI7QgjQ3p2D-1">
          <mxGeometry relative="1" as="geometry" />
        </mxCell>
        <mxCell id="jRo6_jph3yI7QgjQ3p2D-0" value="INITIALIZE month = 1;" style="shape=hexagon;perimeter=hexagonPerimeter2;whiteSpace=wrap;html=1;fixedSize=1;" vertex="1" parent="R6nEht67e2j02Px_Xtbr-1">
          <mxGeometry x="320" y="100" width="210" height="50" as="geometry" />
        </mxCell>
        <mxCell id="jRo6_jph3yI7QgjQ3p2D-10" style="edgeStyle=orthogonalEdgeStyle;rounded=0;orthogonalLoop=1;jettySize=auto;html=1;exitX=0.5;exitY=1;exitDx=0;exitDy=0;entryX=0.5;entryY=0;entryDx=0;entryDy=0;" edge="1" parent="R6nEht67e2j02Px_Xtbr-1" source="jRo6_jph3yI7QgjQ3p2D-1" target="jRo6_jph3yI7QgjQ3p2D-2">
          <mxGeometry relative="1" as="geometry" />
        </mxCell>
        <mxCell id="jRo6_jph3yI7QgjQ3p2D-1" value="GET loanAmount, monthlyPayment" style="shape=parallelogram;perimeter=parallelogramPerimeter;whiteSpace=wrap;html=1;fixedSize=1;" vertex="1" parent="R6nEht67e2j02Px_Xtbr-1">
          <mxGeometry x="300" y="200" width="250" height="60" as="geometry" />
        </mxCell>
        <mxCell id="jRo6_jph3yI7QgjQ3p2D-11" style="edgeStyle=orthogonalEdgeStyle;rounded=0;orthogonalLoop=1;jettySize=auto;html=1;exitX=0.5;exitY=1;exitDx=0;exitDy=0;entryX=0.5;entryY=0;entryDx=0;entryDy=0;" edge="1" parent="R6nEht67e2j02Px_Xtbr-1" source="jRo6_jph3yI7QgjQ3p2D-2" target="jRo6_jph3yI7QgjQ3p2D-4">
          <mxGeometry relative="1" as="geometry" />
        </mxCell>
        <mxCell id="jRo6_jph3yI7QgjQ3p2D-2" value="loanAmount &amp;gt; 0&lt;div&gt;?&lt;/div&gt;" style="rhombus;whiteSpace=wrap;html=1;" vertex="1" parent="R6nEht67e2j02Px_Xtbr-1">
          <mxGeometry x="345" y="320" width="160" height="80" as="geometry" />
        </mxCell>
        <mxCell id="jRo6_jph3yI7QgjQ3p2D-13" style="edgeStyle=orthogonalEdgeStyle;rounded=0;orthogonalLoop=1;jettySize=auto;html=1;exitX=0.5;exitY=1;exitDx=0;exitDy=0;entryX=0.5;entryY=0;entryDx=0;entryDy=0;" edge="1" parent="R6nEht67e2j02Px_Xtbr-1" source="jRo6_jph3yI7QgjQ3p2D-3" target="jRo6_jph3yI7QgjQ3p2D-5">
          <mxGeometry relative="1" as="geometry" />
        </mxCell>
        <mxCell id="jRo6_jph3yI7QgjQ3p2D-3" value="loanAmount &amp;lt; 0&lt;div&gt;?&lt;/div&gt;" style="rhombus;whiteSpace=wrap;html=1;" vertex="1" parent="R6nEht67e2j02Px_Xtbr-1">
          <mxGeometry x="348" y="560" width="155" height="80" as="geometry" />
        </mxCell>
        <mxCell id="jRo6_jph3yI7QgjQ3p2D-12" style="edgeStyle=orthogonalEdgeStyle;rounded=0;orthogonalLoop=1;jettySize=auto;html=1;exitX=0.5;exitY=1;exitDx=0;exitDy=0;entryX=0.5;entryY=0;entryDx=0;entryDy=0;" edge="1" parent="R6nEht67e2j02Px_Xtbr-1" source="jRo6_jph3yI7QgjQ3p2D-4" target="jRo6_jph3yI7QgjQ3p2D-3">
          <mxGeometry relative="1" as="geometry" />
        </mxCell>
        <mxCell id="jRo6_jph3yI7QgjQ3p2D-4" value="COMPUTE&amp;nbsp;&lt;div&gt;loanAmount -= monthlyPayment&lt;/div&gt;" style="rounded=0;whiteSpace=wrap;html=1;" vertex="1" parent="R6nEht67e2j02Px_Xtbr-1">
          <mxGeometry x="330" y="450" width="190" height="60" as="geometry" />
        </mxCell>
        <mxCell id="jRo6_jph3yI7QgjQ3p2D-14" style="edgeStyle=orthogonalEdgeStyle;rounded=0;orthogonalLoop=1;jettySize=auto;html=1;exitX=0.5;exitY=1;exitDx=0;exitDy=0;entryX=0.5;entryY=0;entryDx=0;entryDy=0;" edge="1" parent="R6nEht67e2j02Px_Xtbr-1" source="jRo6_jph3yI7QgjQ3p2D-5" target="jRo6_jph3yI7QgjQ3p2D-6">
          <mxGeometry relative="1" as="geometry" />
        </mxCell>
        <mxCell id="jRo6_jph3yI7QgjQ3p2D-5" value="SET loanAmount = 0;" style="rounded=0;whiteSpace=wrap;html=1;" vertex="1" parent="R6nEht67e2j02Px_Xtbr-1">
          <mxGeometry x="365" y="680" width="120" height="60" as="geometry" />
        </mxCell>
        <mxCell id="jRo6_jph3yI7QgjQ3p2D-15" style="edgeStyle=orthogonalEdgeStyle;rounded=0;orthogonalLoop=1;jettySize=auto;html=1;exitX=0.5;exitY=1;exitDx=0;exitDy=0;entryX=0.5;entryY=0;entryDx=0;entryDy=0;" edge="1" parent="R6nEht67e2j02Px_Xtbr-1" source="jRo6_jph3yI7QgjQ3p2D-6" target="jRo6_jph3yI7QgjQ3p2D-7">
          <mxGeometry relative="1" as="geometry" />
        </mxCell>
        <mxCell id="jRo6_jph3yI7QgjQ3p2D-6" value="DISPLAY month, loanAmount" style="shape=parallelogram;perimeter=parallelogramPerimeter;whiteSpace=wrap;html=1;fixedSize=1;" vertex="1" parent="R6nEht67e2j02Px_Xtbr-1">
          <mxGeometry x="315" y="790" width="220" height="40" as="geometry" />
        </mxCell>
        <mxCell id="jRo6_jph3yI7QgjQ3p2D-16" style="edgeStyle=orthogonalEdgeStyle;rounded=0;orthogonalLoop=1;jettySize=auto;html=1;exitX=0.5;exitY=1;exitDx=0;exitDy=0;entryX=0.5;entryY=0;entryDx=0;entryDy=0;" edge="1" parent="R6nEht67e2j02Px_Xtbr-1" source="jRo6_jph3yI7QgjQ3p2D-7" target="taRT4K7_qySOUpWSKt-5-0">
          <mxGeometry relative="1" as="geometry" />
        </mxCell>
        <mxCell id="jRo6_jph3yI7QgjQ3p2D-7" value="month++" style="rounded=0;whiteSpace=wrap;html=1;" vertex="1" parent="R6nEht67e2j02Px_Xtbr-1">
          <mxGeometry x="380.5" y="880" width="90" height="40" as="geometry" />
        </mxCell>
        <mxCell id="jRo6_jph3yI7QgjQ3p2D-17" value="YES" style="text;html=1;align=center;verticalAlign=middle;whiteSpace=wrap;rounded=0;" vertex="1" parent="R6nEht67e2j02Px_Xtbr-1">
          <mxGeometry x="440" y="410" width="60" height="30" as="geometry" />
        </mxCell>
        <mxCell id="jRo6_jph3yI7QgjQ3p2D-18" value="YES" style="text;html=1;align=center;verticalAlign=middle;whiteSpace=wrap;rounded=0;" vertex="1" parent="R6nEht67e2j02Px_Xtbr-1">
          <mxGeometry x="425" y="640" width="60" height="30" as="geometry" />
        </mxCell>
        <mxCell id="jRo6_jph3yI7QgjQ3p2D-19" value="" style="endArrow=classic;html=1;rounded=0;" edge="1" parent="R6nEht67e2j02Px_Xtbr-1">
          <mxGeometry width="50" height="50" relative="1" as="geometry">
            <mxPoint x="680" y="290" as="sourcePoint" />
            <mxPoint x="425" y="290" as="targetPoint" />
          </mxGeometry>
        </mxCell>
        <mxCell id="jRo6_jph3yI7QgjQ3p2D-20" value="" style="endArrow=none;html=1;rounded=0;" edge="1" parent="R6nEht67e2j02Px_Xtbr-1">
          <mxGeometry width="50" height="50" relative="1" as="geometry">
            <mxPoint x="680" y="600" as="sourcePoint" />
            <mxPoint x="680" y="290" as="targetPoint" />
          </mxGeometry>
        </mxCell>
        <mxCell id="jRo6_jph3yI7QgjQ3p2D-21" value="" style="endArrow=none;html=1;rounded=0;exitX=1;exitY=0.5;exitDx=0;exitDy=0;" edge="1" parent="R6nEht67e2j02Px_Xtbr-1" source="jRo6_jph3yI7QgjQ3p2D-3">
          <mxGeometry width="50" height="50" relative="1" as="geometry">
            <mxPoint x="370" y="620" as="sourcePoint" />
            <mxPoint x="680" y="600" as="targetPoint" />
          </mxGeometry>
        </mxCell>
        <mxCell id="jRo6_jph3yI7QgjQ3p2D-22" value="NO" style="text;html=1;align=center;verticalAlign=middle;whiteSpace=wrap;rounded=0;" vertex="1" parent="R6nEht67e2j02Px_Xtbr-1">
          <mxGeometry x="500" y="570" width="60" height="30" as="geometry" />
        </mxCell>
        <mxCell id="jRo6_jph3yI7QgjQ3p2D-23" value="" style="endArrow=classic;html=1;rounded=0;" edge="1" parent="R6nEht67e2j02Px_Xtbr-1">
          <mxGeometry width="50" height="50" relative="1" as="geometry">
            <mxPoint x="240" y="940" as="sourcePoint" />
            <mxPoint x="425" y="940" as="targetPoint" />
          </mxGeometry>
        </mxCell>
        <mxCell id="jRo6_jph3yI7QgjQ3p2D-24" value="" style="endArrow=none;html=1;rounded=0;" edge="1" parent="R6nEht67e2j02Px_Xtbr-1">
          <mxGeometry width="50" height="50" relative="1" as="geometry">
            <mxPoint x="240" y="940" as="sourcePoint" />
            <mxPoint x="240" y="360" as="targetPoint" />
          </mxGeometry>
        </mxCell>
        <mxCell id="jRo6_jph3yI7QgjQ3p2D-25" value="" style="endArrow=none;html=1;rounded=0;entryX=0;entryY=0.5;entryDx=0;entryDy=0;" edge="1" parent="R6nEht67e2j02Px_Xtbr-1" target="jRo6_jph3yI7QgjQ3p2D-2">
          <mxGeometry width="50" height="50" relative="1" as="geometry">
            <mxPoint x="240" y="360" as="sourcePoint" />
            <mxPoint x="420" y="570" as="targetPoint" />
          </mxGeometry>
        </mxCell>
      </root>
    </mxGraphModel>
  </diagram>
  <diagram name="Copy of Copy of Page-1" id="f9iRB9xe-J5zgm7VLp9y">
    <mxGraphModel dx="1674" dy="772" grid="1" gridSize="10" guides="1" tooltips="1" connect="1" arrows="1" fold="1" page="1" pageScale="1" pageWidth="850" pageHeight="1100" math="0" shadow="0">
      <root>
        <mxCell id="tm8oN68gaCFirihQao-W-0" />
        <mxCell id="tm8oN68gaCFirihQao-W-1" parent="tm8oN68gaCFirihQao-W-0" />
        <mxCell id="tm8oN68gaCFirihQao-W-2" value="&lt;b&gt;START&lt;/b&gt;" style="ellipse;whiteSpace=wrap;html=1;" vertex="1" parent="tm8oN68gaCFirihQao-W-1">
          <mxGeometry x="360" y="360" width="80" height="40" as="geometry" />
        </mxCell>
        <mxCell id="F7LsOZtIsDyZkTEoA4VY-0" value="&lt;b&gt;END&lt;/b&gt;" style="ellipse;whiteSpace=wrap;html=1;" vertex="1" parent="tm8oN68gaCFirihQao-W-1">
          <mxGeometry x="300" y="670" width="80" height="40" as="geometry" />
        </mxCell>
      </root>
    </mxGraphModel>
  </diagram>
</mxfile>
